<?xml version="1.0" encoding="UTF-8" standalone="no"?>
<svg width="390px" height="397px" viewBox="0 0 390 397" version="1.1" xmlns="http://www.w3.org/2000/svg" xmlns:xlink="http://www.w3.org/1999/xlink">
    <!-- Generator: Sketch 3.8.3 (29802) - http://www.bohemiancoding.com/sketch -->
    <title>1 Openedoo</title>
    <desc>Created with Sketch.</desc>
    <defs></defs>
    <g id="Page-1" stroke="none" stroke-width="1" fill="none" fill-rule="evenodd">
        <g id="4-Openedoo-Square-Alt-Color" transform="translate(-61.000000, -74.000000)">
            <g id="1-Openedoo" transform="translate(61.000000, 74.000000)">
                <g id="Logotype" transform="translate(0.000000, 314.000000)">
                    <path d="M0.846713101,42.1445307 C0.846713101,35.4791907 2.71640464,30.0204046 6.44729685,25.7647761 C10.1781891,21.5099967 15.3321526,19.3796352 21.9168292,19.3796352 C28.5252803,19.3796352 33.6953765,21.5015058 37.4262687,25.744398 C41.15801,29.9838939 43.0277015,35.4503217 43.0277015,42.1445307 L43.0277015,43.0106003 C43.0277015,49.7285837 41.15801,55.2035025 37.4262687,59.430262 C33.6953765,63.6578706 28.5499038,65.7712504 21.9983416,65.7712504 C15.3644179,65.7712504 10.1781891,63.6578706 6.44729685,59.430262 C2.71640464,55.2035025 0.846713101,49.7285837 0.846713101,43.0106003 L0.846713101,42.1445307 Z M12.9097048,43.0106003 C12.9097048,47.0870713 13.6254859,50.358607 15.056199,52.8218109 C16.4869121,55.2892604 18.8032239,56.5204378 21.9983416,56.5204378 C25.1110978,56.5204378 27.3875025,55.2807695 28.8343483,52.8014328 C30.281194,50.3220962 31.0046169,47.0582023 31.0046169,43.0106003 L31.0046169,42.1445307 C31.0046169,38.177592 30.2735522,34.9425672 28.8182156,32.4343615 C27.3552371,29.9312504 25.054209,28.6754494 21.9168292,28.6754494 C18.7786003,28.6754494 16.4869121,29.9312504 15.056199,32.4343615 C13.6254859,34.9425672 12.9097048,38.177592 12.9097048,42.1445307 L12.9097048,43.0106003 Z M47.3597479,27.4765373 L47.3597479,20.209194 L64.8772803,20.209194 L65.45466,25.4115556 C66.7800862,23.4849751 68.3653333,21.9973731 70.2104013,20.952995 C72.0554693,19.9043715 74.2011144,19.3796352 76.6481857,19.3796352 C82.1842388,19.3796352 86.4840199,21.542262 89.5407363,25.8666667 C92.5966036,30.1910713 94.1249619,35.8774129 94.1249619,42.9290879 L94.1249619,43.7951575 C94.1249619,50.4036086 92.5966036,55.7197479 89.5407363,59.7435755 C86.4840199,63.7631575 82.2165041,65.7712504 76.73734,65.7712504 C74.3964046,65.7712504 72.3152902,65.3399138 70.4948458,64.4704478 C68.6820431,63.6052272 67.1214196,62.328199 65.8291078,60.6504013 L65.8291078,73.5786136 L71.6572471,74.8182819 L71.6572471,82.0898706 L47.9855257,82.0898706 L47.9855257,74.8182819 L53.8060232,73.5786136 L53.8060232,28.7162056 L47.3597479,27.4765373 Z M82.0619701,42.9290879 C82.0619701,38.7142156 81.3631708,35.3000332 79.9570813,32.6822952 C78.5501426,30.0654063 76.4044975,28.7603582 73.510806,28.7603582 C71.6980033,28.7603582 70.1450216,29.1305605 68.8688425,29.8743615 C67.5841725,30.6181625 66.5686633,31.6786733 65.8291078,33.056743 L65.8291078,52.6350116 C66.5686633,53.9026998 67.5841725,54.8664146 68.8688425,55.5287032 C70.1450216,56.1875954 71.7217778,56.5204378 73.5914693,56.5204378 C76.5097844,56.5204378 78.6562786,55.3784146 80.0216119,53.0901227 C81.3793035,50.8060763 82.0619701,47.7052073 82.0619701,43.7951575 L82.0619701,42.9290879 Z M120.901798,65.7712504 C114.455522,65.7712504 109.301559,63.7062687 105.448398,59.5771542 C101.595237,55.4437944 99.6610149,50.2006766 99.6610149,43.8350647 L99.6610149,42.1852869 C99.6610149,35.5479668 101.48995,30.081539 105.140179,25.7851542 C108.789559,21.4896186 113.682852,19.3558607 119.820909,19.3796352 C125.85198,19.3796352 130.5347,21.2009287 133.86737,24.8341758 C137.20004,28.468272 138.866799,33.3861891 138.866799,39.5802852 L138.866799,46.1522255 L112.179118,46.1522255 L112.098454,46.4001592 C112.317519,49.3464942 113.301612,51.768942 115.056677,53.6675025 C116.804949,55.5694594 119.178149,56.5204378 122.177977,56.5204378 C124.852604,56.5204378 127.07127,56.252126 128.827184,55.7155025 C130.591589,55.1754826 132.518169,54.329791 134.615416,53.1716352 L137.875065,60.6096451 C136.029148,62.0683781 133.639814,63.2961592 130.713008,64.2878939 C127.778561,65.2753831 124.502779,65.7712504 120.901798,65.7712504 Z M119.820909,28.6754494 C117.592902,28.6754494 115.829347,29.5287828 114.537035,31.2354494 C113.244723,32.9472106 112.439788,35.1905008 112.138362,37.9704146 L112.26063,38.177592 L127.055138,38.177592 L127.055138,37.105194 C127.055138,34.5400995 126.453983,32.4954959 125.258468,30.9671376 C124.05531,29.4396285 122.250998,28.6754494 119.820909,28.6754494 Z M143.906136,57.6751973 L149.685877,56.435529 L149.685877,28.7162056 L143.288849,27.4765373 L143.288849,20.209194 L160.927801,20.209194 L161.464425,26.6104677 C162.952027,24.3264212 164.780962,22.5501294 166.959721,21.281592 C169.12999,20.0139038 171.56857,19.3796352 174.267821,19.3796352 C178.787516,19.3796352 182.306985,20.798461 184.843211,23.6352637 C187.379436,26.4720663 188.647124,30.9229851 188.647124,36.9786799 L188.647124,56.435529 L194.426866,57.6751973 L194.426866,64.9051808 L171.37328,64.9051808 L171.37328,57.6751973 L176.543376,56.435529 L176.543376,37.0194362 C176.543376,34.0196086 175.933731,31.8900962 174.722932,30.6385406 C173.511284,29.386136 171.682348,28.7603582 169.227635,28.7603582 C167.634746,28.7603582 166.195542,29.0813134 164.935496,29.7274693 C163.667808,30.3778706 162.603051,31.2923383 161.748869,32.4751177 L161.748869,56.435529 L166.62603,57.6751973 L166.62603,64.9051808 L143.906136,64.9051808 L143.906136,57.6751973 Z" id="Open" fill="#344046"></path>
                    <path d="M224.032013,19.3796352 C217.894806,19.3558607 213.001512,21.4896186 209.351284,25.7851542 C205.701904,30.081539 203.872968,35.5479668 203.872968,42.1852869 L203.872968,43.8350647 C203.872968,50.2006766 205.807191,55.4437944 209.660352,59.5771542 C213.513512,63.7062687 218.667476,65.7712504 225.113751,65.7712504 C228.714733,65.7712504 231.990514,65.2753831 234.924962,64.2878939 C237.850919,63.2961592 240.241101,62.0683781 242.086169,60.6096451 L238.826521,53.1716352 C236.729274,54.329791 234.802693,55.1754826 233.039138,55.7155025 C231.283224,56.252126 229.063708,56.5204378 226.38993,56.5204378 C223.390103,56.5204378 221.016053,55.5694594 219.26863,53.6675025 C217.512716,51.768942 216.529473,49.3464942 216.309559,46.4001592 L216.391071,46.1522255 L243.077904,46.1522255 L243.077904,39.5802852 C243.077904,33.3861891 241.411993,28.468272 238.078474,24.8341758 C234.745804,21.2009287 230.063934,19.3796352 224.032013,19.3796352 Z M231.267091,38.177592 L216.472584,38.177592 L216.350315,37.9704146 C216.650892,35.1905008 217.455828,32.9472106 218.748139,31.2354494 C220.0413,29.5287828 221.804856,28.6754494 224.032013,28.6754494 C226.462952,28.6754494 228.267264,29.4396285 229.470421,30.9671376 C230.665088,32.4954959 231.267091,34.5400995 231.267091,37.105194 L231.267091,38.177592 Z M289.21734,0.460258706 L270.716564,0.460258706 L270.716564,7.73099834 L277.154348,8.97066667 L277.154348,25.000597 C275.805148,23.2081725 274.236033,21.8267065 272.447854,20.846859 C270.659675,19.871257 268.651582,19.3796352 266.415934,19.3796352 C260.879881,19.3796352 256.58859,21.542262 253.531874,25.8666667 C250.475158,30.1910713 248.939158,35.8774129 248.939158,42.9290879 L248.939158,43.7951575 C248.939158,50.4036086 250.467516,55.7197479 253.50725,59.7435755 C256.547834,63.7631575 260.822992,65.7712504 266.334421,65.7712504 C268.789983,65.7712504 270.967894,65.2346269 272.878342,64.1613798 C274.796431,63.0889818 276.455549,61.5198673 277.861638,59.4506401 L278.771861,64.9051808 L295.005572,64.9051808 L295.005572,57.6751973 L289.21734,56.435529 L289.21734,0.460258706 Z M277.154348,52.2240531 C276.33328,53.5741028 275.268524,54.6065937 273.976212,55.3215257 C272.683051,56.0373068 271.155542,56.3947728 269.391138,56.3947728 C266.415934,56.3947728 264.27793,55.2731277 262.969486,53.0289884 C261.661041,50.7856982 261.002149,47.7052073 261.002149,43.7951575 L261.002149,42.9290879 C261.002149,38.7142156 261.677174,35.3000332 263.026375,32.6822952 C264.375575,30.0654063 266.529711,28.7603582 269.47265,28.7603582 C271.212431,28.7603582 272.716166,29.1509386 273.999987,29.9354959 C275.276166,30.719204 276.33328,31.8289619 277.154348,33.259675 L277.154348,52.2240531 Z M382.853904,25.744398 C379.122163,21.5015058 373.952915,19.3796352 367.343615,19.3796352 C360.759788,19.3796352 355.605824,21.5099967 351.874932,25.7647761 C349.16804,28.8520597 347.471562,32.593141 346.727761,36.9481128 C345.620551,36.7307463 344.44796,36.5821559 343.259237,36.5821559 C342.33543,36.5821559 341.444736,36.7265008 340.561685,36.8666003 C339.81194,32.5277612 338.123104,28.8045108 335.429798,25.744398 C331.698905,21.5015058 326.528809,19.3796352 319.920358,19.3796352 C313.335682,19.3796352 308.181718,21.5099967 304.450826,25.7647761 C300.719934,30.0204046 298.850242,35.4791907 298.850242,42.1445307 L298.850242,43.0106003 C298.850242,49.7285837 300.719934,55.2035025 304.450826,59.430262 C308.181718,63.6578706 313.367947,65.7712504 320.001022,65.7712504 C326.553433,65.7712504 331.698905,63.6578706 335.429798,59.430262 C338.271695,56.2113698 340.01742,52.2588657 340.69669,47.5939768 C341.538985,47.3443449 342.444962,47.1337711 343.259237,47.1337711 C344.347768,47.1337711 345.596776,47.4785008 346.630965,47.8436086 C347.334859,52.4032106 349.082282,56.2674096 351.874932,59.430262 C355.605824,63.6578706 360.792053,65.7712504 367.425128,65.7712504 C373.97669,65.7712504 379.122163,63.6578706 382.853904,59.430262 C386.584796,55.2035025 388.454488,49.7285837 388.454488,43.0106003 L388.454488,42.1445307 C388.454488,35.4503217 386.584796,29.9838939 382.853904,25.744398 Z M329.008146,43.0106003 C329.008146,47.0582023 328.284723,50.3220962 326.837877,52.8014328 C325.391032,55.2807695 323.114627,56.5204378 320.001022,56.5204378 C316.806753,56.5204378 314.490441,55.2892604 313.059728,52.8218109 C311.629015,50.358607 310.913234,47.0870713 310.913234,43.0106003 L310.913234,42.1445307 C310.913234,38.177592 311.629015,34.9425672 313.059728,32.4343615 C314.490441,29.9312504 316.782129,28.6754494 319.920358,28.6754494 C323.057738,28.6754494 325.357917,29.9312504 326.821745,32.4343615 C328.276232,34.9425672 329.008146,38.177592 329.008146,42.1445307 L329.008146,43.0106003 Z M376.432252,43.0106003 C376.432252,47.0582023 375.70798,50.3220962 374.261134,52.8014328 C372.814289,55.2807695 370.538733,56.5204378 367.425128,56.5204378 C364.230859,56.5204378 361.913698,55.2892604 360.482985,52.8218109 C359.052272,50.358607 358.33734,47.0870713 358.33734,43.0106003 L358.33734,42.1445307 C358.33734,38.177592 359.052272,34.9425672 360.482985,32.4343615 C361.913698,29.9312504 364.206235,28.6754494 367.343615,28.6754494 C370.481844,28.6754494 372.782023,29.9312504 374.245002,32.4343615 C375.700338,34.9425672 376.432252,38.177592 376.432252,42.1445307 L376.432252,43.0106003 Z" id="Edoo" fill="#D98735"></path>
                </g>
                <g id="Icon" transform="translate(22.000000, 0.000000)">
                    <path d="M147.257353,263.673765 C149.172896,258.448478 151.409393,252.574488 154.129871,246.283595 C156.853745,239.9961 159.884988,233.204245 163.56069,226.249367 C167.092896,219.219768 171.322202,212.051768 176.074547,204.864239 C177.261572,203.06672 178.600584,201.34392 179.875065,199.559138 C181.157187,197.781997 182.435065,195.986176 183.95663,194.273566 C185.424703,192.541426 186.901267,190.799947 188.386322,189.04743 C189.953738,187.517373 191.528796,185.978826 193.110647,184.434335 L195.588285,182.055191 L197.935164,179.845864 C199.562866,178.418547 200.938388,176.787449 202.380988,175.206448 C205.242415,172.03001 207.651277,168.519881 209.435211,164.828896 C211.335469,161.160836 212.10729,157.177765 212.034269,153.190448 C211.939171,149.182753 210.827715,145.141944 209.318036,141.118116 C207.810056,137.105327 205.947158,133.025459 204.39927,128.69596 C203.691131,126.728624 202.897234,124.245041 202.482879,122.024677 C202.003993,119.752517 201.703416,117.503284 201.508975,115.28207 C200.687058,106.392119 201.40199,97.9241658 202.516842,90.0072703 C203.697075,82.0946202 205.509877,74.7338773 207.906852,68.1712769 C210.285997,61.6324511 213.240823,55.7652537 217.293519,51.5902886 C219.306706,49.5287032 221.647642,47.9230779 224.146507,47.2964511 C226.68528,46.6919005 229.029612,47.3134328 230.895058,48.0903483 C232.633141,48.9462289 233.916962,50.000796 234.993605,51.0324378 L234.834826,50.8405439 L239.96926,54.6402123 C240.026149,54.2963317 239.948033,53.9405638 240.077944,53.6094196 L247.056597,30.7392371 C247.153393,30.4233765 247.047257,30.0794959 246.789983,29.8714693 C246.535257,29.665141 246.171847,29.6320265 245.887403,29.7933532 L233.141745,36.8586136 L239.139701,23.4693466 C239.284896,23.1441459 239.201685,22.7620564 238.933373,22.5277081 C238.66676,22.2908126 238.277028,22.2602454 237.972206,22.4461957 L227.155675,29.1285174 L232.636537,17.648 C232.795317,17.3151575 232.711257,16.9169353 232.431058,16.6791907 C232.148312,16.4414461 231.743297,16.4227662 231.441022,16.6316418 L220.058998,24.5434428 L223.356007,11.407204 C223.442614,11.0565307 223.288929,10.6914229 222.98071,10.5097181 C222.668245,10.3220697 222.27257,10.3696186 222.01275,10.6158541 L210.548365,21.3644577 L211.603781,7.61687562 C211.634348,7.24497512 211.403396,6.89939635 211.048478,6.78307131 C210.684219,6.66759536 210.303828,6.80939303 210.104292,7.12865008 L201.652471,20.8193433 L200.103735,2.21922388 C200.072318,1.83119071 199.767496,1.52042454 199.381161,1.47881924 C198.99143,1.43976119 198.630567,1.6775058 198.517638,2.0494063 L192.624119,21.4187993 L187.900643,0.679827529 C187.816584,0.313870647 187.493081,0.0515024876 187.115237,0.0489552239 L187.109294,0.0489552239 C186.734846,0.0489552239 186.409645,0.303681592 186.32134,0.667091211 L181.42465,20.6512239 L173.396524,2.2319602 C173.245386,1.88638143 172.866693,1.68175124 172.504982,1.75986733 C172.132232,1.82779436 171.858826,2.14365506 171.841844,2.52065008 L170.935018,23.0031973 L162.686978,5.1918806 C162.522255,4.83696186 162.129128,4.64506799 161.749585,4.74695854 C161.37259,4.84205638 161.116166,5.19442786 161.139091,5.5841592 L162.336305,24.7548657 L151.929884,7.80112769 C151.729499,7.47422886 151.330428,7.33497844 150.971264,7.45894527 C150.6121,7.58376119 150.386242,7.94377446 150.432093,8.32246766 L152.85539,28.6521791 L137.655867,11.7570282 C137.400292,11.475131 136.98339,11.4038076 136.653095,11.5923051 C136.32195,11.7774063 136.164869,12.1696849 136.274401,12.5339436 L142.376796,32.7846899 L119.91927,17.4382753 C119.634826,17.2446833 119.25868,17.251476 118.981028,17.454408 C118.704226,17.6598872 118.584504,18.0156551 118.684697,18.3459502 L123.779224,35.0874163 L107.273804,25.8332073 C106.993605,25.676126 106.648027,25.6982023 106.392451,25.8917944 C106.135177,26.0836882 106.014607,26.4080398 106.086779,26.7205041 L109.859277,43.4084776 L85.1431774,37.616 C84.8239204,37.5319403 84.4953234,37.664398 84.3025804,37.9259171 C84.1106866,38.1865871 84.0928557,38.5389585 84.2584279,38.8200066 L99.233791,64.1177313 L72.7048889,52.2772007 C72.3898773,52.1362521 72.0120332,52.2135191 71.7751376,52.4716418 C71.5382421,52.7306136 71.4932405,53.111005 71.6664544,53.4175257 L84.2108789,75.7256119 L61.9690216,71.5786667 C61.6268391,71.5132869 61.2889022,71.6746136 61.1156882,71.9709453 C60.9441725,72.2706733 60.9789851,72.6451211 61.2039934,72.9066401 L75.8872703,90.0013267 L50.8519138,90.2373731 C50.5487894,90.2416186 50.2711376,90.4122852 50.1352836,90.6831443 C49.9994295,90.9548524 50.0240531,91.2783549 50.2015124,91.5245904 L64.3965638,111.211542 L41.4423217,113.507476 C41.1366501,113.537194 40.8725837,113.739277 40.7639005,114.027967 C40.6543682,114.314959 40.7180498,114.640159 40.9269254,114.866866 L55.3359469,130.411967 L35.7024876,133.810866 C35.4053068,133.863509 35.1607695,134.073234 35.0673698,134.359376 C34.9739701,134.64467 35.0469917,134.958833 35.2567164,135.176199 L45.2937844,145.571582 L28.9395025,145.571582 C28.5845837,145.571582 28.2704212,145.803383 28.1642852,146.140471 C28.0598474,146.480106 28.1846633,146.847761 28.4784478,147.050693 L42.8789784,157.021532 L23.8526169,162.242574 C23.553738,162.325784 23.3270315,162.570322 23.2709917,162.877692 C23.2132537,163.181665 23.3338242,163.492431 23.5843051,163.678381 L36.5728027,173.326567 L15.2717347,180.934395 C14.9720066,181.040531 14.7622819,181.313937 14.7351111,181.630647 C14.7079403,181.947357 14.869267,182.252179 15.1477678,182.407562 L34.2437546,193.100975 L11.8685904,206.988657 C11.633393,207.133851 11.4898972,207.388577 11.4848027,207.662833 C11.4797081,207.937937 11.613864,208.196909 11.8431177,208.350594 L28.3273101,219.4694 L9.38840464,232.996219 C9.17018905,233.154149 9.04367496,233.407177 9.04876949,233.675489 C9.0547131,233.942952 9.19311443,234.190036 9.41642454,234.338627 L26.9721658,245.786879 L9.4614262,255.682998 C9.18292537,255.839231 9.02329685,256.144053 9.05216584,256.459914 C9.07933665,256.776624 9.28991045,257.049181 9.58963847,257.156166 L27.4986003,263.498852 L1.30763516,280.058614 C1.0028126,280.252206 0.861864013,280.624955 0.962056385,280.970534 C1.06309784,281.317811 1.38065672,281.557254 1.74236816,281.557254 L141.193167,281.557254 C141.59139,280.26664 142.031217,278.863947 142.543217,277.290587 C143.791376,273.496013 145.37068,268.910939 147.257353,263.673765" id="Fill-11" fill="#D98735"></path>
                    <path d="M235.547211,85.9095721 C234.908697,85.9095721 234.301599,86.0258972 233.741201,86.2593964 C232.12199,86.9361194 231.218561,88.4466468 230.751562,89.6065008 C229.349718,93.0020033 229.64605,97.9139768 231.529327,102.429426 C234.83058,110.324245 240.996657,113.788524 244.561977,112.24743 C246.182036,111.569857 247.084617,110.05933 247.552464,108.899476 C248.953459,105.504823 248.657977,100.592849 246.773002,96.0765506 C243.986295,89.4044179 239.019131,85.9095721 235.547211,85.9095721 Z M361.019476,264.601818 C347.513035,251.595489 335.495894,255.583655 327.865141,255.583655 C322.039549,255.583655 274.71139,247.086833 261.543735,229.696663 C261.547131,229.676285 261.546282,229.657605 261.549678,229.637227 L261.499582,229.648265 C261.494488,229.643171 261.49194,229.639774 261.486846,229.63468 C261.456279,229.594773 257.986905,225.115834 254.28743,218.725599 L254.334978,218.844471 C253.584385,217.536876 252.886434,216.231828 252.184239,214.928478 C252.137539,214.838474 252.08999,214.762056 252.04329,214.671204 C245.204736,201.922149 240.337765,189.786985 230.83732,184.744252 C239.81133,186.044206 245.978255,198.010401 245.978255,198.010401 C245.978255,198.010401 254.713672,214.633844 263.701267,220.483211 C270.05669,200.302939 295.373095,174.092444 315.777526,152.996007 C332.158129,136.058401 345.095682,122.681871 344.339993,116.648252 C343.078249,106.552597 339.713313,103.145207 331.001672,103.145207 C328.842441,103.145207 326.249327,103.331158 322.33673,103.765041 C320.467887,103.973068 318.400358,104.077506 316.188484,104.079204 C307.754494,104.079204 283.367841,102.041393 260.780405,83.0447496 C259.033831,83.3325904 254.413944,84.6435821 252.746335,90.294262 C253.228617,91.1790116 253.726182,92.051874 254.122706,93.0096451 C256.832146,99.4949784 257.143761,106.571277 254.932736,111.935814 C253.422209,115.586892 250.899569,118.24199 247.629731,119.603927 C246.10392,120.242441 244.453294,120.56934 242.755967,120.56934 C235.391828,120.56934 227.917307,114.512796 224.180471,105.497181 C221.471032,99.0118474 221.160265,91.9346998 223.37129,86.5710116 C224.880968,82.9190846 227.403609,80.2648358 230.673446,78.9020498 C235.868166,76.7411211 242.076697,78.5810945 247.0999,83.0455987 C249.004405,80.1094527 251.563556,78.1276816 254.125254,76.8548988 C249.889154,72.518607 245.749002,67.7127695 241.904332,61.8880265 C241.881406,61.8557612 240.288517,59.4961459 239.856332,56.8503881 L239.773121,56.8053864 C239.773121,56.8053864 239.015735,55.9724312 237.593512,54.4092604 C236.885373,53.6238541 235.869015,52.8299569 234.766899,51.8254859 C234.15131,51.4085837 233.49072,50.9619635 232.785128,50.4856252 C232.082083,50.0160796 231.241486,49.7188988 230.41872,49.2935058 C228.674693,48.7458441 226.653864,48.4028126 224.611808,49.0752902 C222.590129,49.7749386 220.698362,51.2965041 219.050282,53.2859171 C217.371635,55.2608955 215.975735,57.7589121 214.736915,60.4904279 C213.471774,63.2117546 212.375602,66.2183748 211.417831,69.4168889 C209.499741,75.8181625 208.17007,83.0141824 207.305698,90.6576716 C206.537274,98.30201 206.267264,106.483821 207.180882,114.651197 C207.409287,116.686461 207.736186,118.719177 208.204033,120.683118 C208.65405,122.722627 209.235675,124.397877 210.057592,126.541824 C211.575761,130.440836 213.493002,134.399284 215.153818,138.762746 C216.812086,143.087151 218.237705,147.870912 218.408371,152.981572 C218.57734,158.052325 217.514282,163.328557 215.274388,167.756551 C211.011118,176.761977 203.702169,183.330521 197.386653,189.172245 C195.792066,190.703151 194.203423,192.227264 192.62327,193.743735 C191.231615,195.313698 189.848451,196.87602 188.47208,198.429002 C187.060046,199.925944 185.782169,201.628365 184.505141,203.305313 C183.24,204.989055 181.912876,206.600624 180.721605,208.309837 C175.998129,215.174713 171.542116,221.952982 167.784902,228.706627 C163.933439,235.394892 160.559164,241.905698 157.493957,247.946109 C154.494978,254.022182 151.813559,259.638899 149.482813,264.648517 C147.198766,269.678514 145.264544,274.097167 143.7226,277.760133 C143.139277,279.155184 142.621333,280.3974 142.135655,281.557254 L362.01206,281.557254 C362.01206,281.557254 375.270567,278.324776 361.019476,264.601818 Z" id="Combined-Shape" fill="#344046"></path>
                </g>
            </g>
        </g>
    </g>
</svg>